<svg id="Debian" xmlns="http://www.w3.org/2000/svg" viewBox="0 0 150 120"><defs><style>.cls-1{fill:#a80030;}</style></defs><title>debian</title><path class="cls-1" d="M79.29,63c-1.65,0,.31.85,2.47,1.18.6-.47,1.14-.94,1.62-1.39a12.32,12.32,0,0,1-4.09.21"/><path class="cls-1" d="M88.16,60.78a10.49,10.49,0,0,0,2-4.38,10.69,10.69,0,0,1-1.37,3c-3.09,1.94-.29-1.15,0-2.33-3.32,4.18-.46,2.51-.58,3.67"/><path class="cls-1" d="M91.43,52.26c.2-3-.59-2-.85-.9.31.16.55,2.1.85.9"/><path class="cls-1" d="M73,11.61c.88.16,1.9.28,1.76.49,1-.21,1.18-.41-1.76-.49"/><path class="cls-1" d="M74.79,12.1l-.62.13.58-.05,0-.08"/><path class="cls-1" d="M102.28,53.39c.1,2.67-.78,4-1.57,6.26l-1.43.71c-1.17,2.27.11,1.44-.72,3.24C96.73,65.23,93,68.68,91.83,69c-.87,0,.59-1,.78-1.42-2.44,1.68-2,2.52-5.69,3.53l-.11-.24c-9.21,4.33-22-4.25-21.83-16-.1.74-.28.56-.48.86a14.75,14.75,0,0,1,8.28-14.55,14,14,0,0,1,15.53,2A13.84,13.84,0,0,0,77,37.8c-4.89.08-9.46,3.18-11,6.55-2.5,1.58-2.79,6.08-3.89,6.9C60.65,62,64.88,66.7,72,72.19c1.13.76.32.87.47,1.45a19.41,19.41,0,0,1-6.34-4.85,17,17,0,0,0,3.3,3.8c-2.24-.76-5.23-5.43-6.11-5.62C67.21,73.89,79,79.1,85.2,76.51a25.8,25.8,0,0,1-9.71-1.13c-1.35-.69-3.19-2.13-2.86-2.4,8.44,3.15,17.16,2.39,24.46-3.47,1.86-1.45,3.89-3.91,4.47-3.94-.88,1.33.15.64-.53,1.81,1.85-3-.8-1.22,1.91-5.16l1,1.38c-.37-2.48,3.08-5.49,2.73-9.41.79-1.2.88,1.29,0,4,1.17-3.06.31-3.55.61-6.07a22.94,22.94,0,0,1,1,2.65c-.76-3,.78-5,1.16-6.7-.37-.17-1.17,1.31-1.35-2.18,0-1.52.42-.8.57-1.17-.3-.17-1.08-1.33-1.55-3.56.34-.52.92,1.36,1.39,1.44a34.66,34.66,0,0,1-.84-4.49c-1.37-2.86-.48.38-1.6-1.23-1.46-4.55,1.21-1.06,1.39-3.12,2.21,3.2,3.47,8.16,4,10.22a41.87,41.87,0,0,0-2-7.28c.67.28-1.08-5.16.87-1.55-2.09-7.68-8.93-14.85-15.22-18.22.77.7,1.74,1.59,1.39,1.73-3.13-1.86-2.58-2-3-2.8-2.55-1-2.72.08-4.41,0-4.81-2.55-5.73-2.28-10.16-3.88l.2.94c-3.18-1.06-3.71.4-7.15,0-.21-.16,1.1-.59,2.18-.75-3.08.41-2.93-.61-5.95.11A25.6,25.6,0,0,1,70.54,11c-2.51.15-6,1.46-4.92.27-4.1,1.83-11.37,4.39-15.45,8.22L50,18.67c-1.87,2.25-8.16,6.71-8.66,9.61l-.5.12a53.9,53.9,0,0,0-2.38,5.21c-1.27,2.17-1.87.83-1.68,1.17A79.27,79.27,0,0,0,32,47.62c.77,1.14,0,6.89.31,11.49C31.06,81.82,48.25,103.86,67,109c2.75,1,6.85.95,10.34,1-4.11-1.18-4.64-.62-8.65-2-2.89-1.36-3.52-2.91-5.57-4.69l.81,1.43c-4-1.42-2.33-1.76-5.6-2.79l.86-1.13c-1.3-.1-3.44-2.19-4-3.35l-1.42.06c-1.71-2.11-2.62-3.63-2.55-4.81l-.46.82c-.52-.89-6.29-7.91-3.3-6.28A6.75,6.75,0,0,1,45.38,85l.61-.7c-1.44-1.85-2.65-4.23-2.56-5a3.26,3.26,0,0,0,1.83,1.41c-3.64-9-3.84-.5-6.6-9.19l.58,0a19.29,19.29,0,0,1-1.08-2.12l.25-2.53c-2.62-3-.73-12.87-.35-18.27.26-2.2,2.19-4.53,3.65-8.2l-.89-.15c1.7-3,9.73-11.94,13.45-11.48,1.8-2.26-.36,0-.71-.58,4-4.09,5.2-2.89,7.87-3.63,2.88-1.71-2.47.67-1.11-.65,5-1.27,3.53-2.89,10-3.53.68.39-1.59.6-2.16,1.11,4.15-2,13.12-1.57,18.95,1.13,6.76,3.16,14.36,12.5,14.66,21.3l.34.09c-.17,3.49.53,7.54-.69,11.25l.83-1.76"/><path class="cls-1" d="M61.27,65.25,61,66.41a22.25,22.25,0,0,0,3.33,4.22c-1-1.95-1.74-2.75-3.1-5.38"/><path class="cls-1" d="M63.83,65.15A9.19,9.19,0,0,1,62.54,63a15,15,0,0,0,1.8,3.66l-.51-1.5"/><path class="cls-1" d="M109.24,55.28l-.24.61a29.37,29.37,0,0,1-2.88,9.19,28.86,28.86,0,0,0,3.12-9.79"/><path class="cls-1" d="M73.36,10.82c1.12-.41,2.75-.22,3.93-.49-1.54.13-3.08.21-4.6.4l.67.09"/><path class="cls-1" d="M34.15,31.66c.26,2.38-1.79,3.31.45,1.74,1.2-2.71-.47-.75-.45-1.74"/><path class="cls-1" d="M31.51,42.69a25.87,25.87,0,0,0,.81-3.46c-1.43,1.83-.66,2.22-.81,3.46"/></svg>