<svg id="RHEL" xmlns="http://www.w3.org/2000/svg" viewBox="0 0 150 120"><title>rhel_atomic</title><path d="M4.86,51.06,3.59,48.43H2.72v2.63H.6V43.27H4.09a5.16,5.16,0,0,1,1.24.14,2.64,2.64,0,0,1,1,.44,2,2,0,0,1,.62.78,2.86,2.86,0,0,1,.22,1.17,2.5,2.5,0,0,1-.38,1.44,2.4,2.4,0,0,1-1,.85l1.56,3Zm-.1-5.8A1,1,0,0,0,4,45H2.72v1.7H4a1.06,1.06,0,0,0,.76-.22A.87.87,0,0,0,5,45.86.85.85,0,0,0,4.76,45.26Z"/><path d="M8.9,51.06V43.27h6v1.81H11v1h2.3v1.78H11v1.34h3.91v1.81Z"/><path d="M23.13,49a2.81,2.81,0,0,1-.8,1.21,3.24,3.24,0,0,1-1.32.67,7.21,7.21,0,0,1-1.82.21H16.66V43.27h2.73a6.74,6.74,0,0,1,1.66.19,3,3,0,0,1,1.26.64,2.94,2.94,0,0,1,.8,1.19,5.13,5.13,0,0,1,.28,1.84A5.58,5.58,0,0,1,23.13,49Zm-2-2.74a1.49,1.49,0,0,0-.31-.63,1.24,1.24,0,0,0-.56-.36,2.66,2.66,0,0,0-.85-.12h-.53v4.1h.47a3,3,0,0,0,.86-.11,1.3,1.3,0,0,0,.58-.34,1.4,1.4,0,0,0,.33-.63,4,4,0,0,0,.1-1A4,4,0,0,0,21.08,46.23Z"/><path d="M33.66,51.06V48H31.24v3.07H29V43.27h2.2V46.1h2.43V43.27h2.2v7.79Z"/><path d="M42.81,51.06l-.42-1.37H40.05l-.42,1.37H37.32l2.83-7.79h2.18l2.83,7.79Zm-1.09-3.59-.18-.66-.14-.5-.11-.41q0-.18-.08-.38,0,.2-.08.39c0,.13-.07.26-.11.41l-.14.5-.18.65-.14.51h1.29Z"/><path d="M49.56,45.15v5.91H47.4V45.15H45.22V43.27h6.52v1.88Z"/><path d="M54.63,44.61a1,1,0,0,1-.53.53,1.07,1.07,0,0,1-.8,0,1,1,0,0,1-.53-.53,1.07,1.07,0,0,1,0-.8,1,1,0,0,1,.53-.53,1.07,1.07,0,0,1,.8,0,1,1,0,0,1,.53.53,1.07,1.07,0,0,1,0,.8Zm-.15-.73a.83.83,0,0,0-.18-.27.81.81,0,0,0-.27-.18.9.9,0,0,0-.67,0,.81.81,0,0,0-.45.45.9.9,0,0,0,0,.67.82.82,0,0,0,.45.45A.9.9,0,0,0,54,45a.81.81,0,0,0,.27-.18.83.83,0,0,0,.18-.27.9.9,0,0,0,0-.67Zm-.39.31a.33.33,0,0,1-.17.11l.23.44h-.22l-.21-.42h-.21v.42h-.19v-1.1h.48l.14,0a.31.31,0,0,1,.11.06.29.29,0,0,1,.08.1.35.35,0,0,1,0,.15A.33.33,0,0,1,54.09,44.19Zm-.17-.32a.2.2,0,0,0-.13,0h-.29v.31h.29a.21.21,0,0,0,.13,0A.14.14,0,0,0,54,44,.14.14,0,0,0,53.92,43.87Z"/><path d="M.6,65V53.28H7.66v1.19H1.9v3.67H5.24v1.19H1.9v4.46h6V65Z"/><path d="M17.6,65,12.5,57q-.1-.15-.22-.36l-.23-.42-.22-.39a2.71,2.71,0,0,1-.16-.3V65H10.4V53.28h1.27l5.06,8.15q.1.15.22.36l.23.42.23.39a2.77,2.77,0,0,1,.16.3V53.28h1.27V65Z"/><path d="M25.91,54.47V65h-1.3V54.47H21.17V53.28h8.18v1.19Z"/><path d="M31.7,65V53.28h7.06v1.19H33v3.67h3.34v1.19H33v4.46h6V65Z"/><path d="M49,58.79a3.62,3.62,0,0,1-2,1.1L49.58,65h-1.5l-2.5-5H42.8v5H41.5V53.28h4.62a5,5,0,0,1,1.44.2,3.17,3.17,0,0,1,1.15.61,2.92,2.92,0,0,1,.77,1,3.49,3.49,0,0,1,.28,1.47A3.16,3.16,0,0,1,49,58.79ZM47.85,55a2.6,2.6,0,0,0-1.78-.54H42.8v4.34h3.1a2.89,2.89,0,0,0,1.93-.54,2.46,2.46,0,0,0,0-3.26Z"/><path d="M60.15,58.31a3.18,3.18,0,0,1-.81,1.14,3.43,3.43,0,0,1-1.25.69,5.27,5.27,0,0,1-1.6.23H53.65V65h-1.3V53.28h4.37a5,5,0,0,1,1.48.21,3.22,3.22,0,0,1,1.18.64,3,3,0,0,1,.78,1.09,4.28,4.28,0,0,1,0,3.09Zm-1.64-3.24a2.55,2.55,0,0,0-1.84-.61h-3v4.72h2.85q2.64,0,2.64-2.37A2.31,2.31,0,0,0,58.51,55.08Z"/><path d="M70.18,58.79a3.62,3.62,0,0,1-2,1.1L70.75,65h-1.5l-2.5-5H64v5h-1.3V53.28h4.62a5,5,0,0,1,1.44.2,3.17,3.17,0,0,1,1.15.61,2.92,2.92,0,0,1,.77,1,3.49,3.49,0,0,1,.28,1.47A3.17,3.17,0,0,1,70.18,58.79ZM69,55a2.6,2.6,0,0,0-1.78-.54H64v4.34h3.1A2.89,2.89,0,0,0,69,58.27,2.46,2.46,0,0,0,69,55Z"/><path d="M73.6,65V53.28h1.3V65Z"/><path d="M85,63.18a2.84,2.84,0,0,1-.76,1A3.69,3.69,0,0,1,83,64.9a5,5,0,0,1-1.64.25,5.28,5.28,0,0,1-2.21-.46,5.75,5.75,0,0,1-1.71-1.16l.87-1a5.92,5.92,0,0,0,1.44,1,3.68,3.68,0,0,0,1.67.38,2.9,2.9,0,0,0,1.85-.53A1.77,1.77,0,0,0,83.93,62a2,2,0,0,0-.13-.73,1.63,1.63,0,0,0-.46-.62,4.34,4.34,0,0,0-.86-.56,11,11,0,0,0-1.34-.56,11.57,11.57,0,0,1-1.59-.68,4.32,4.32,0,0,1-1-.73,2.38,2.38,0,0,1-.57-.88,3.28,3.28,0,0,1-.18-1.12A2.83,2.83,0,0,1,78,54.83a2.78,2.78,0,0,1,.74-.94,3.23,3.23,0,0,1,1.15-.59,5.25,5.25,0,0,1,1.49-.2,5.32,5.32,0,0,1,2,.33,6.28,6.28,0,0,1,1.56.92l-.83,1a5.14,5.14,0,0,0-1.28-.81,3.86,3.86,0,0,0-1.53-.28,3.36,3.36,0,0,0-1,.14,2.09,2.09,0,0,0-.71.38,1.39,1.39,0,0,0-.4.54,1.73,1.73,0,0,0-.13.66,2,2,0,0,0,.1.66,1.42,1.42,0,0,0,.4.57,3.6,3.6,0,0,0,.84.54,14,14,0,0,0,1.43.58,12.25,12.25,0,0,1,1.62.7,4.05,4.05,0,0,1,1,.77,2.48,2.48,0,0,1,.56.92,3.64,3.64,0,0,1,.17,1.15A3.22,3.22,0,0,1,85,63.18Z"/><path d="M87.94,65V53.28H95v1.19H89.24v3.67h3.34v1.19H89.24v4.46h6V65Z"/><path d="M102.08,65V53.28h1.3v10.5h5.78V65Z"/><path d="M111.76,65V53.28h1.3V65Z"/><path d="M123.41,65l-5.09-8q-.1-.15-.22-.36l-.23-.42-.22-.39a2.71,2.71,0,0,1-.16-.3V65h-1.27V53.28h1.27l5.06,8.15q.1.15.22.36l.23.42.23.39a2.86,2.86,0,0,1,.16.3V53.28h1.27V65Z"/><path d="M135,63.89a3.84,3.84,0,0,1-3.15,1.26,3.93,3.93,0,0,1-3.16-1.24,5.54,5.54,0,0,1-1.06-3.68V53.28h1.3v6.91q0,3.77,3,3.77a2.48,2.48,0,0,0,2.17-.92,4.91,4.91,0,0,0,.65-2.82V53.28H136v6.91A5.71,5.71,0,0,1,135,63.89Z"/><path d="M145.41,65l-1.79-3.05q-.33-.57-.59-1t-.48-.9l-.48.92q-.25.47-.58,1L139.67,65h-1.44l3.64-6.08-3.34-5.61H140l1.5,2.55q.33.55.58,1l.48.92q.22-.43.48-.9t.59-1l1.5-2.55h1.44l-3.34,5.58L146.88,65Z"/><path d="M149.92,54.65a1,1,0,0,1-.53.53,1.07,1.07,0,0,1-.8,0,1,1,0,0,1-.53-.53,1.07,1.07,0,0,1,0-.8,1,1,0,0,1,.53-.53,1.07,1.07,0,0,1,.8,0,1,1,0,0,1,.53.53,1.07,1.07,0,0,1,0,.8Zm-.15-.73a.83.83,0,0,0-.18-.27.81.81,0,0,0-.27-.18.9.9,0,0,0-.67,0,.82.82,0,0,0-.45.45.9.9,0,0,0,0,.67.82.82,0,0,0,.45.45.9.9,0,0,0,.67,0,.81.81,0,0,0,.27-.18.83.83,0,0,0,.18-.27.9.9,0,0,0,0-.67Zm-.39.31a.33.33,0,0,1-.17.11l.23.44h-.22l-.21-.42h-.21v.42h-.19v-1.1h.48l.14,0a.31.31,0,0,1,.11.06.29.29,0,0,1,.08.1.35.35,0,0,1,0,.15A.33.33,0,0,1,149.39,54.23Zm-.17-.32a.2.2,0,0,0-.13,0h-.29v.31h.29a.21.21,0,0,0,.13,0,.16.16,0,0,0,0-.24Z"/><path d="M8.13,78.88l-1-3H2.3l-1,3H0L4,67.19H5.44L9.5,78.88Zm-2.69-8-.21-.62L5,69.62q-.1-.31-.18-.58l-.13-.46L4.6,69c-.05.18-.11.37-.18.58l-.22.66L4,70.92,2.71,74.72h4Z"/><path d="M14.67,68.38v10.5h-1.3V68.38H9.93V67.19h8.18v1.19Z"/><path d="M28.85,75.45a5.81,5.81,0,0,1-1,1.91,4.59,4.59,0,0,1-1.54,1.25,4.62,4.62,0,0,1-4,0,4.44,4.44,0,0,1-1.53-1.24,5.78,5.78,0,0,1-1-1.9,8.13,8.13,0,0,1-.34-2.42,8,8,0,0,1,.35-2.43,5.91,5.91,0,0,1,1-1.91,4.51,4.51,0,0,1,1.54-1.25,4.62,4.62,0,0,1,4,0,4.45,4.45,0,0,1,1.53,1.24,5.93,5.93,0,0,1,1,1.9,8.56,8.56,0,0,1,0,4.85Zm-1.23-4.39a5,5,0,0,0-.76-1.54,3.41,3.41,0,0,0-1.14-1,3,3,0,0,0-1.42-.34,2.92,2.92,0,0,0-1.39.34,3.33,3.33,0,0,0-1.11,1A4.82,4.82,0,0,0,21.07,71a7,7,0,0,0-.27,2,6.75,6.75,0,0,0,.28,2,5.06,5.06,0,0,0,.75,1.54,3.31,3.31,0,0,0,1.13,1,3,3,0,0,0,1.42.34,3,3,0,0,0,1.4-.34,3.3,3.3,0,0,0,1.12-1A4.83,4.83,0,0,0,27.63,75a7,7,0,0,0,.27-2A6.76,6.76,0,0,0,27.62,71.06Z"/><path d="M40.6,78.88V69.71l-.13.41c-.05.16-.11.33-.18.5l-.2.53c-.07.18-.13.34-.2.5l-3.12,7.53-3.06-7.53q-.1-.22-.2-.49l-.19-.53q-.09-.26-.17-.5L33,69.71v9.16H31.77V67.19h1.45l2.76,7,.23.58.24.63.22.59c.07.18.12.34.15.46q.05-.18.15-.47l.22-.6.24-.63.23-.57,2.79-7h1.42V78.88H40.6Z"/><path d="M45,78.88V67.19h1.3V78.88Z"/><path d="M55.92,78.53a4.5,4.5,0,0,1-2.24.53,4.13,4.13,0,0,1-1.94-.46,4.51,4.51,0,0,1-1.49-1.26,5.88,5.88,0,0,1-1-1.9A8.2,8.2,0,0,1,49,73.05a8,8,0,0,1,.35-2.41,6,6,0,0,1,1-1.91,4.57,4.57,0,0,1,1.51-1.26A4.14,4.14,0,0,1,53.74,67a4.34,4.34,0,0,1,3.72,1.87l-1,.78a4,4,0,0,0-1.17-1.12,3.05,3.05,0,0,0-1.55-.35,2.77,2.77,0,0,0-1.39.36,3.36,3.36,0,0,0-1.09,1,5.06,5.06,0,0,0-.71,1.52,6.94,6.94,0,0,0-.26,2,7,7,0,0,0,.26,2,4.91,4.91,0,0,0,.73,1.54,3.48,3.48,0,0,0,1.1,1,2.73,2.73,0,0,0,1.37.36,3.18,3.18,0,0,0,1.64-.4,4.41,4.41,0,0,0,1.25-1.13l.9.78A4.9,4.9,0,0,1,55.92,78.53Z"/><path d="M71.4,78.88V73.37H65.59v5.51h-1.3V67.19h1.3v5H71.4v-5h1.3V78.88Z"/><path d="M84.62,75.45a5.81,5.81,0,0,1-1,1.91,4.59,4.59,0,0,1-1.54,1.25,4.62,4.62,0,0,1-4,0,4.44,4.44,0,0,1-1.53-1.24,5.8,5.8,0,0,1-1-1.9,8.13,8.13,0,0,1-.34-2.42,8,8,0,0,1,.35-2.43,5.9,5.9,0,0,1,1-1.91,4.51,4.51,0,0,1,1.54-1.25,4.62,4.62,0,0,1,4,0,4.45,4.45,0,0,1,1.53,1.24,5.93,5.93,0,0,1,1,1.9A7.94,7.94,0,0,1,85,73,8.06,8.06,0,0,1,84.62,75.45Zm-1.23-4.39a5,5,0,0,0-.76-1.54,3.41,3.41,0,0,0-1.14-1,3,3,0,0,0-1.42-.34,2.93,2.93,0,0,0-1.39.34,3.34,3.34,0,0,0-1.11,1A4.82,4.82,0,0,0,76.84,71a6.93,6.93,0,0,0-.27,2,6.75,6.75,0,0,0,.28,2,5.07,5.07,0,0,0,.75,1.54,3.31,3.31,0,0,0,1.13,1,3,3,0,0,0,1.42.34,3,3,0,0,0,1.4-.34,3.3,3.3,0,0,0,1.12-1A4.82,4.82,0,0,0,83.4,75a7,7,0,0,0,.27-2A6.76,6.76,0,0,0,83.39,71.06Z"/><path d="M94.26,77.09a2.84,2.84,0,0,1-.76,1,3.7,3.7,0,0,1-1.22.68,5,5,0,0,1-1.64.25,5.29,5.29,0,0,1-2.21-.46,5.75,5.75,0,0,1-1.71-1.16l.87-1a5.92,5.92,0,0,0,1.44,1,3.67,3.67,0,0,0,1.67.38,2.9,2.9,0,0,0,1.85-.53,1.77,1.77,0,0,0,.68-1.47,2,2,0,0,0-.13-.73,1.64,1.64,0,0,0-.46-.62,4.34,4.34,0,0,0-.86-.56,11,11,0,0,0-1.34-.56,11.57,11.57,0,0,1-1.59-.68,4.32,4.32,0,0,1-1-.73,2.38,2.38,0,0,1-.57-.88A3.28,3.28,0,0,1,87.06,70a2.83,2.83,0,0,1,.27-1.25,2.78,2.78,0,0,1,.74-.94,3.23,3.23,0,0,1,1.15-.59,5.25,5.25,0,0,1,1.49-.2,5.32,5.32,0,0,1,2,.33,6.28,6.28,0,0,1,1.56.92l-.83,1a5.14,5.14,0,0,0-1.28-.81,3.86,3.86,0,0,0-1.53-.28,3.36,3.36,0,0,0-1,.14,2.09,2.09,0,0,0-.71.38,1.39,1.39,0,0,0-.4.54,1.73,1.73,0,0,0-.13.66,2,2,0,0,0,.1.66,1.42,1.42,0,0,0,.4.57,3.6,3.6,0,0,0,.84.54,14,14,0,0,0,1.43.58,12.25,12.25,0,0,1,1.62.7,4.05,4.05,0,0,1,1,.77,2.48,2.48,0,0,1,.56.92,3.64,3.64,0,0,1,.17,1.15A3.23,3.23,0,0,1,94.26,77.09Z"/><path d="M100.89,68.38v10.5h-1.3V68.38H96.15V67.19h8.18v1.19Z"/></svg>