<svg id="RHEL_Atomic" data-name="RHEL Atomic" xmlns="http://www.w3.org/2000/svg" viewBox="0 0 150 120"><title>rhel</title><path d="M6.76,44.26l-2-4.16H3.37v4.16H0V31.92H5.54a8.18,8.18,0,0,1,2,.22,4.19,4.19,0,0,1,1.53.7,3.11,3.11,0,0,1,1,1.24,4.53,4.53,0,0,1,.34,1.86,4,4,0,0,1-.6,2.27,3.8,3.8,0,0,1-1.63,1.34l2.47,4.71ZM6.6,35.07a1.53,1.53,0,0,0-1.16-.37H3.37v2.7h2A1.68,1.68,0,0,0,6.6,37,1.38,1.38,0,0,0,7,36,1.34,1.34,0,0,0,6.6,35.07Z"/><path d="M13.17,44.26V31.92h9.45v2.87H16.56v1.66h3.65v2.82H16.56v2.12h6.19v2.87Z"/><path d="M35.71,41a4.45,4.45,0,0,1-1.27,1.92,5.13,5.13,0,0,1-2.09,1.06,11.42,11.42,0,0,1-2.88.33h-4V31.92h4.32a10.69,10.69,0,0,1,2.63.3,4.78,4.78,0,0,1,2,1,4.66,4.66,0,0,1,1.27,1.88A8.14,8.14,0,0,1,36.13,38,8.84,8.84,0,0,1,35.71,41Zm-3.24-4.35a2.36,2.36,0,0,0-.48-1,2,2,0,0,0-.88-.57,4.21,4.21,0,0,0-1.34-.19h-.85v6.49h.74A4.81,4.81,0,0,0,31,41.17a2.06,2.06,0,0,0,.93-.55,2.21,2.21,0,0,0,.52-1,6.38,6.38,0,0,0,.16-1.54A6.27,6.27,0,0,0,32.47,36.61Z"/><path d="M52.41,44.26V39.39H48.57v4.87H45.07V31.92h3.49v4.5h3.84v-4.5H55.9V44.26Z"/><path d="M66.91,44.26l-.67-2.17h-3.7l-.67,2.17H58.19l4.48-12.34h3.46l4.48,12.34Zm-1.73-5.7-.28-1-.22-.79q-.1-.35-.17-.64t-.12-.61q-.05.32-.12.62c0,.2-.1.42-.17.65l-.22.79-.28,1-.23.81h2Z"/><path d="M77.59,34.9v9.36H74.17V34.9H70.72v-3H81v3Z"/><path d="M85.63,34.05a1.53,1.53,0,0,1-.84.84,1.7,1.7,0,0,1-1.26,0,1.53,1.53,0,0,1-.84-.84,1.7,1.7,0,0,1,0-1.26,1.53,1.53,0,0,1,.84-.84,1.7,1.7,0,0,1,1.26,0,1.53,1.53,0,0,1,.84.84,1.7,1.7,0,0,1,0,1.26ZM85.4,32.9a1.31,1.31,0,0,0-.28-.43,1.29,1.29,0,0,0-.43-.28,1.43,1.43,0,0,0-1.06,0,1.29,1.29,0,0,0-.71.71,1.43,1.43,0,0,0,0,1.06,1.3,1.3,0,0,0,.71.71,1.43,1.43,0,0,0,1.06,0,1.29,1.29,0,0,0,.43-.28A1.32,1.32,0,0,0,85.4,34a1.43,1.43,0,0,0,0-1.06Zm-.61.49a.52.52,0,0,1-.27.18l.36.7h-.35l-.34-.67h-.33v.67h-.3V32.52h.76a.76.76,0,0,1,.22,0,.5.5,0,0,1,.18.09.46.46,0,0,1,.12.16.55.55,0,0,1,0,.24A.52.52,0,0,1,84.78,33.38Zm-.27-.51a.31.31,0,0,0-.2-.06h-.46v.49h.46a.33.33,0,0,0,.2-.06.22.22,0,0,0,.08-.19A.22.22,0,0,0,84.51,32.87Z"/><path d="M0,66.3V47.79H11.21v1.88H2.08v5.82H7.37v1.88H2.08v7.06H11.6V66.3Z"/><path d="M26.95,66.3,18.88,53.63q-.16-.24-.34-.57l-.37-.66-.36-.62a4.3,4.3,0,0,1-.25-.48v15h-2V47.79h2l8,12.91q.16.24.34.57l.37.66.36.62a4.39,4.39,0,0,1,.25.48V47.79h2V66.3Z"/><path d="M40.12,49.67V66.3H38.06V49.67H32.61V47.79h13v1.88Z"/><path d="M49.3,66.3V47.79H60.49v1.88H51.36v5.82h5.29v1.88H51.36v7.06h9.52V66.3Z"/><path d="M76.73,56.52a5.74,5.74,0,0,1-3.17,1.75l4.07,8H75.25l-4-7.88H66.89V66.3H64.82V47.79h7.33a7.88,7.88,0,0,1,2.27.32,5,5,0,0,1,1.83,1,4.63,4.63,0,0,1,1.22,1.63A5.53,5.53,0,0,1,77.92,53,5,5,0,0,1,76.73,56.52Zm-1.84-6a4.12,4.12,0,0,0-2.82-.86H66.89v6.88h4.92a4.58,4.58,0,0,0,3.05-.86,3.89,3.89,0,0,0,0-5.16Z"/><path d="M94.38,55.76a5,5,0,0,1-1.28,1.8,5.43,5.43,0,0,1-2,1.1,8.34,8.34,0,0,1-2.54.37h-4.5V66.3H82V47.79h6.93a7.91,7.91,0,0,1,2.34.33,5.1,5.1,0,0,1,1.86,1,4.71,4.71,0,0,1,1.24,1.73,6.78,6.78,0,0,1,0,4.89Zm-2.61-5.13a4,4,0,0,0-2.91-1H84.08v7.49H88.6q4.18,0,4.18-3.76A3.66,3.66,0,0,0,91.78,50.63Z"/><path d="M110.27,56.52a5.74,5.74,0,0,1-3.17,1.75l4.07,8h-2.38l-4-7.88h-4.39V66.3H98.37V47.79h7.33a7.88,7.88,0,0,1,2.27.32,5,5,0,0,1,1.83,1A4.63,4.63,0,0,1,111,50.7a5.53,5.53,0,0,1,.45,2.33A5,5,0,0,1,110.27,56.52Zm-1.84-6a4.12,4.12,0,0,0-2.82-.86h-5.18v6.88h4.92a4.58,4.58,0,0,0,3.05-.86,3.89,3.89,0,0,0,0-5.16Z"/><path d="M115.69,66.3V47.79h2.06V66.3Z"/><path d="M133.72,63.47a4.5,4.5,0,0,1-1.2,1.64,5.84,5.84,0,0,1-1.93,1.08,7.85,7.85,0,0,1-2.59.4,8.37,8.37,0,0,1-3.51-.73A9.12,9.12,0,0,1,121.78,64l1.37-1.53a9.38,9.38,0,0,0,2.28,1.61,5.83,5.83,0,0,0,2.65.61,4.59,4.59,0,0,0,2.92-.85,2.8,2.8,0,0,0,1.07-2.33,3.12,3.12,0,0,0-.21-1.16,2.58,2.58,0,0,0-.73-1,6.88,6.88,0,0,0-1.36-.89,17.4,17.4,0,0,0-2.12-.89,18.34,18.34,0,0,1-2.53-1.07,6.84,6.84,0,0,1-1.64-1.16,3.76,3.76,0,0,1-.9-1.39,5.19,5.19,0,0,1-.28-1.77,4.48,4.48,0,0,1,.42-2,4.4,4.4,0,0,1,1.18-1.49,5.13,5.13,0,0,1,1.83-.94,8.31,8.31,0,0,1,2.37-.32,8.44,8.44,0,0,1,3.16.53,10,10,0,0,1,2.47,1.45l-1.32,1.61a8.15,8.15,0,0,0-2-1.28,6.12,6.12,0,0,0-2.42-.44,5.33,5.33,0,0,0-1.64.22,3.31,3.31,0,0,0-1.12.6,2.2,2.2,0,0,0-.63.86,2.74,2.74,0,0,0-.2,1,3.21,3.21,0,0,0,.16,1,2.24,2.24,0,0,0,.63.9,5.7,5.7,0,0,0,1.34.86,22.13,22.13,0,0,0,2.26.93,19.41,19.41,0,0,1,2.57,1.11A6.42,6.42,0,0,1,133,58.16a3.93,3.93,0,0,1,.89,1.45,5.77,5.77,0,0,1,.26,1.83A5.11,5.11,0,0,1,133.72,63.47Z"/><path d="M138.41,66.3V47.79H149.6v1.88h-9.13v5.82h5.29v1.88h-5.29v7.06H150V66.3Z"/><path d="M0,88.35V69.83H2.08V86.47h9.15v1.88H0Z"/><path d="M15.36,88.35V69.83h2.06V88.35Z"/><path d="M33.82,88.35,25.75,75.68q-.16-.24-.34-.57L25,74.45l-.36-.62a4.3,4.3,0,0,1-.25-.48v15h-2V69.83h2l8,12.91q.16.24.34.57l.37.66.36.62a4.46,4.46,0,0,1,.25.48V69.83h2V88.35Z"/><path d="M52.18,86.64a6.09,6.09,0,0,1-5,2,6.22,6.22,0,0,1-5-2q-1.68-2-1.68-5.83v-11h2.06v11q0,6,4.73,6a3.92,3.92,0,0,0,3.44-1.45,7.79,7.79,0,0,0,1-4.47v-11h2.06v11A9,9,0,0,1,52.18,86.64Z"/><path d="M68.69,88.35l-2.83-4.84q-.53-.9-.94-1.64t-.75-1.43l-.77,1.45q-.4.74-.93,1.61l-2.88,4.84H57.31l5.77-9.63-5.29-8.89h2.33l2.38,4q.53.87.93,1.61l.77,1.45q.34-.69.75-1.43t.94-1.64l2.38-4h2.27l-5.29,8.83L71,88.35Z"/><path d="M75.84,72a1.53,1.53,0,0,1-.84.84,1.7,1.7,0,0,1-1.26,0A1.53,1.53,0,0,1,72.9,72a1.7,1.7,0,0,1,0-1.26,1.53,1.53,0,0,1,.84-.84,1.7,1.7,0,0,1,1.26,0,1.53,1.53,0,0,1,.84.84,1.7,1.7,0,0,1,0,1.26Zm-.24-1.16a1.31,1.31,0,0,0-.28-.43,1.29,1.29,0,0,0-.43-.28,1.43,1.43,0,0,0-1.06,0,1.29,1.29,0,0,0-.71.71,1.43,1.43,0,0,0,0,1.06,1.3,1.3,0,0,0,.71.71,1.43,1.43,0,0,0,1.06,0,1.29,1.29,0,0,0,.43-.28,1.32,1.32,0,0,0,.28-.42,1.43,1.43,0,0,0,0-1.06Zm-.61.49a.52.52,0,0,1-.27.18l.36.7h-.35l-.34-.67h-.33v.67h-.3V70.47h.76a.76.76,0,0,1,.22,0,.5.5,0,0,1,.18.09.46.46,0,0,1,.12.16.55.55,0,0,1,0,.24A.52.52,0,0,1,75,71.33Zm-.27-.51a.31.31,0,0,0-.2-.06h-.46v.49h.46a.33.33,0,0,0,.2-.06.22.22,0,0,0,.08-.19A.22.22,0,0,0,74.71,70.82Z"/></svg>