<svg id="Ubuntu" xmlns="http://www.w3.org/2000/svg" viewBox="0 0 150 120"><defs><style>.cls-1{fill:#dd4814;}.cls-2{fill:#fff;}</style></defs><title>ubuntu</title><path class="cls-1" d="M125.38,60.07A49.93,49.93,0,1,1,75.46,10.14,49.93,49.93,0,0,1,125.38,60.07Z"/><path class="cls-2" d="M41.51,53.41a6.67,6.67,0,1,0,6.66,6.67A6.67,6.67,0,0,0,41.51,53.41ZM89.1,83.7a6.66,6.66,0,1,0,9.1,2.44A6.66,6.66,0,0,0,89.1,83.7ZM56,60.07a19.44,19.44,0,0,1,8.28-15.93L59.39,36a29,29,0,0,0-12,16.83,9.36,9.36,0,0,1,0,14.52,29,29,0,0,0,12,16.83L64.26,76A19.44,19.44,0,0,1,56,60.07ZM75.46,40.6A19.47,19.47,0,0,1,94.85,58.35l9.5-.14a28.87,28.87,0,0,0-8.6-18.78,9.36,9.36,0,0,1-12.55-7.26,29,29,0,0,0-20.57,1.95l4.63,8.3A19.39,19.39,0,0,1,75.46,40.6Zm0,38.94a19.39,19.39,0,0,1-8.2-1.81L62.62,86A29,29,0,0,0,83.19,88a9.36,9.36,0,0,1,12.55-7.26,28.87,28.87,0,0,0,8.6-18.78l-9.5-.14A19.47,19.47,0,0,1,75.46,79.54ZM89.1,36.44a6.66,6.66,0,1,0-2.44-9.1A6.66,6.66,0,0,0,89.1,36.44Z"/></svg>