<svg id="Unknown-Other" xmlns="http://www.w3.org/2000/svg" viewBox="0 0 150 120"><defs><style>.cls-1{fill:#07bce5}</style></defs><title>other-unknown</title><path id="unknown" class="cls-1" d="M75.86 85.44h-2.73c.3-5.91.91-10.92 2.12-14.71a102.06 102.06 0 0 1 7.13-16.22q4.32-8 5.46-12.28A28.35 28.35 0 0 0 89 33.58c0-5.91-1.67-10.77-4.7-14.25A15.13 15.13 0 0 0 72.67 14c-4.09 0-7.28.91-9.7 2.88s-3.49 4.12-3.49 6.24a14.21 14.21 0 0 0 2.12 6.37c1.36 2.58 2.12 4.4 2.12 5.76a6 6 0 0 1-1.67 4.25 5 5 0 0 1-3.94 1.67 7.05 7.05 0 0 1-5.46-2.88c-1.67-2-2.43-4.7-2.43-8.19q0-8 6.82-14.1c4.55-4.09 10.77-6.22 18.65-6.22 9.7 0 16.83 2.88 21.38 8.49a21.64 21.64 0 0 1 5.16 13.8A27.31 27.31 0 0 1 100 42.68c-1.52 3.64-4.4 7.88-8.79 12.74-6.86 7.73-11.11 13.19-12.62 16.52a46.73 46.73 0 0 0-2.73 13.5zm-.91 8.79a7.77 7.77 0 0 1 7.88 7.88 7.93 7.93 0 0 1-13.49 5.61 8.06 8.06 0 0 1 0-11.22 7.79 7.79 0 0 1 5.61-2.27z"/></svg>