<svg xmlns="http://www.w3.org/2000/svg" viewBox="0 0 150 120"><title>rhel_atomic</title><path d="M4.86 51.06l-1.27-2.63h-.87v2.63H.6v-7.79h3.49a5.16 5.16 0 0 1 1.24.14 2.64 2.64 0 0 1 1 .44 2 2 0 0 1 .62.78 2.86 2.86 0 0 1 .22 1.17 2.5 2.5 0 0 1-.38 1.44 2.4 2.4 0 0 1-1 .85l1.56 3zm-.1-5.8A1 1 0 0 0 4 45H2.72v1.7H4a1.06 1.06 0 0 0 .76-.22.87.87 0 0 0 .24-.62.85.85 0 0 0-.24-.6zM8.9 51.06v-7.79h6v1.81H11v1h2.3v1.78H11v1.34h3.91v1.81zM23.13 49a2.81 2.81 0 0 1-.8 1.21 3.24 3.24 0 0 1-1.32.67 7.21 7.21 0 0 1-1.82.21h-2.53v-7.82h2.73a6.74 6.74 0 0 1 1.66.19 3 3 0 0 1 1.26.64 2.94 2.94 0 0 1 .8 1.19 5.13 5.13 0 0 1 .28 1.84 5.58 5.58 0 0 1-.26 1.87zm-2-2.74a1.49 1.49 0 0 0-.31-.63 1.24 1.24 0 0 0-.56-.36 2.66 2.66 0 0 0-.85-.12h-.53v4.1h.47a3 3 0 0 0 .86-.11 1.3 1.3 0 0 0 .58-.34 1.4 1.4 0 0 0 .33-.63 4 4 0 0 0 .1-1 4 4 0 0 0-.14-.94zM33.66 51.06V48h-2.42v3.07H29v-7.8h2.2v2.83h2.43v-2.83h2.2v7.79zM42.81 51.06l-.42-1.37h-2.34l-.42 1.37h-2.31l2.83-7.79h2.18l2.83 7.79zm-1.09-3.59l-.18-.66-.14-.5-.11-.41q0-.18-.08-.38 0 .2-.08.39c0 .13-.07.26-.11.41l-.14.5-.18.65-.14.51h1.29zM49.56 45.15v5.91H47.4v-5.91h-2.18v-1.88h6.52v1.88zM54.63 44.61a1 1 0 0 1-.53.53 1.07 1.07 0 0 1-.8 0 1 1 0 0 1-.53-.53 1.07 1.07 0 0 1 0-.8 1 1 0 0 1 .53-.53 1.07 1.07 0 0 1 .8 0 1 1 0 0 1 .53.53 1.07 1.07 0 0 1 0 .8zm-.15-.73a.83.83 0 0 0-.18-.27.81.81 0 0 0-.27-.18.9.9 0 0 0-.67 0 .81.81 0 0 0-.45.45.9.9 0 0 0 0 .67.82.82 0 0 0 .45.45.9.9 0 0 0 .64 0 .81.81 0 0 0 .27-.18.83.83 0 0 0 .18-.27.9.9 0 0 0 0-.67zm-.39.31a.33.33 0 0 1-.17.11l.23.44h-.22l-.21-.42h-.21v.42h-.19v-1.1h.62a.31.31 0 0 1 .11.06.29.29 0 0 1 .08.1.35.35 0 0 1 0 .15.33.33 0 0 1-.04.24zm-.17-.32a.2.2 0 0 0-.13 0h-.29v.31h.29a.21.21 0 0 0 .13 0A.14.14 0 0 0 54 44a.14.14 0 0 0-.08-.13zM.6 65V53.28h7.06v1.19H1.9v3.67h3.34v1.19H1.9v4.46h6V65zM17.6 65l-5.1-8q-.1-.15-.22-.36l-.23-.42-.22-.39a2.71 2.71 0 0 1-.16-.3V65H10.4V53.28h1.27l5.06 8.15q.1.15.22.36l.23.42.23.39a2.77 2.77 0 0 1 .16.3v-9.62h1.27V65zM25.91 54.47V65h-1.3V54.47h-3.44v-1.19h8.18v1.19zM31.7 65V53.28h7.06v1.19H33v3.67h3.34v1.19H33v4.46h6V65zM49 58.79a3.62 3.62 0 0 1-2 1.1L49.58 65h-1.5l-2.5-5H42.8v5h-1.3V53.28h4.62a5 5 0 0 1 1.44.2 3.17 3.17 0 0 1 1.15.61 2.92 2.92 0 0 1 .77 1 3.49 3.49 0 0 1 .28 1.47 3.16 3.16 0 0 1-.76 2.23zM47.85 55a2.6 2.6 0 0 0-1.78-.54H42.8v4.34h3.1a2.89 2.89 0 0 0 1.93-.54 2.46 2.46 0 0 0 0-3.26zM60.15 58.31a3.18 3.18 0 0 1-.81 1.14 3.43 3.43 0 0 1-1.25.69 5.27 5.27 0 0 1-1.6.23h-2.84V65h-1.3V53.28h4.37a5 5 0 0 1 1.48.21 3.22 3.22 0 0 1 1.18.64 3 3 0 0 1 .78 1.09 4.28 4.28 0 0 1 0 3.09zm-1.64-3.24a2.55 2.55 0 0 0-1.84-.61h-3v4.72h2.85q2.64 0 2.64-2.37a2.31 2.31 0 0 0-.65-1.73zM70.18 58.79a3.62 3.62 0 0 1-2 1.1L70.75 65h-1.5l-2.5-5H64v5h-1.3V53.28h4.62a5 5 0 0 1 1.44.2 3.17 3.17 0 0 1 1.15.61 2.92 2.92 0 0 1 .77 1 3.49 3.49 0 0 1 .28 1.47 3.17 3.17 0 0 1-.78 2.23zM69 55a2.6 2.6 0 0 0-1.78-.54H64v4.34h3.1a2.89 2.89 0 0 0 1.9-.53A2.46 2.46 0 0 0 69 55zM73.6 65V53.28h1.3V65zM85 63.18a2.84 2.84 0 0 1-.76 1 3.69 3.69 0 0 1-1.24.72 5 5 0 0 1-1.64.25 5.28 5.28 0 0 1-2.21-.46 5.75 5.75 0 0 1-1.71-1.16l.87-1a5.92 5.92 0 0 0 1.44 1 3.68 3.68 0 0 0 1.67.38 2.9 2.9 0 0 0 1.85-.53 1.77 1.77 0 0 0 .66-1.38 2 2 0 0 0-.13-.73 1.63 1.63 0 0 0-.46-.62 4.34 4.34 0 0 0-.86-.56 11 11 0 0 0-1.34-.56 11.57 11.57 0 0 1-1.59-.68 4.32 4.32 0 0 1-1-.73 2.38 2.38 0 0 1-.57-.88 3.28 3.28 0 0 1-.18-1.12 2.83 2.83 0 0 1 .2-1.29 2.78 2.78 0 0 1 .74-.94 3.23 3.23 0 0 1 1.15-.59 5.25 5.25 0 0 1 1.49-.2 5.32 5.32 0 0 1 2 .33 6.28 6.28 0 0 1 1.56.92l-.83 1a5.14 5.14 0 0 0-1.28-.81 3.86 3.86 0 0 0-1.53-.28 3.36 3.36 0 0 0-1 .14 2.09 2.09 0 0 0-.71.38 1.39 1.39 0 0 0-.4.54 1.73 1.73 0 0 0-.13.66 2 2 0 0 0 .1.66 1.42 1.42 0 0 0 .4.57 3.6 3.6 0 0 0 .84.54 14 14 0 0 0 1.43.58 12.25 12.25 0 0 1 1.62.7 4.05 4.05 0 0 1 1 .77 2.48 2.48 0 0 1 .56.92 3.64 3.64 0 0 1 .17 1.15 3.22 3.22 0 0 1-.18 1.31zM87.94 65V53.28H95v1.19h-5.76v3.67h3.34v1.19h-3.34v4.46h6V65zM102.08 65V53.28h1.3v10.5h5.78V65zM111.76 65V53.28h1.3V65zM123.41 65l-5.09-8q-.1-.15-.22-.36l-.23-.42-.22-.39a2.71 2.71 0 0 1-.16-.3V65h-1.27V53.28h1.27l5.06 8.15q.1.15.22.36l.23.42.23.39a2.86 2.86 0 0 1 .16.3v-9.62h1.27V65zM135 63.89a3.84 3.84 0 0 1-3.15 1.26 3.93 3.93 0 0 1-3.16-1.24 5.54 5.54 0 0 1-1.06-3.68v-6.95h1.3v6.91q0 3.77 3 3.77a2.48 2.48 0 0 0 2.17-.92 4.91 4.91 0 0 0 .65-2.82v-6.94H136v6.91a5.71 5.71 0 0 1-1 3.7zM145.41 65l-1.79-3.05q-.33-.57-.59-1t-.48-.9l-.48.92q-.25.47-.58 1L139.67 65h-1.44l3.64-6.08-3.34-5.61H140l1.5 2.55q.33.55.58 1l.48.92q.22-.43.48-.9t.59-1l1.5-2.55h1.44l-3.34 5.58 3.65 6.09zM149.92 54.65a1 1 0 0 1-.53.53 1.07 1.07 0 0 1-.8 0 1 1 0 0 1-.53-.53 1.07 1.07 0 0 1 0-.8 1 1 0 0 1 .53-.53 1.07 1.07 0 0 1 .8 0 1 1 0 0 1 .53.53 1.07 1.07 0 0 1 0 .8zm-.15-.73a.83.83 0 0 0-.18-.27.81.81 0 0 0-.27-.18.9.9 0 0 0-.67 0 .82.82 0 0 0-.45.45.9.9 0 0 0 0 .67.82.82 0 0 0 .45.45.9.9 0 0 0 .67 0 .81.81 0 0 0 .27-.18.83.83 0 0 0 .18-.27.9.9 0 0 0 0-.67zm-.39.31a.33.33 0 0 1-.17.11l.23.44h-.22l-.21-.42h-.21v.42h-.19v-1.1h.62a.31.31 0 0 1 .11.06.29.29 0 0 1 .08.1.35.35 0 0 1 0 .15.33.33 0 0 1-.03.24zm-.17-.32a.2.2 0 0 0-.13 0h-.29v.31h.29a.21.21 0 0 0 .13 0 .16.16 0 0 0 0-.24zM8.13 78.88l-1-3H2.3l-1 3H0l4-11.69h1.44L9.5 78.88zm-2.69-8l-.21-.62-.23-.64q-.1-.31-.18-.58l-.13-.46-.09.42c-.05.18-.11.37-.18.58l-.22.66-.2.68-1.29 3.8h4zM14.67 68.38v10.5h-1.3v-10.5H9.93v-1.19h8.18v1.19zM28.85 75.45a5.81 5.81 0 0 1-1 1.91 4.59 4.59 0 0 1-1.54 1.25 4.62 4.62 0 0 1-4 0 4.44 4.44 0 0 1-1.53-1.24 5.78 5.78 0 0 1-1-1.9 8.13 8.13 0 0 1-.34-2.42 8 8 0 0 1 .35-2.43 5.91 5.91 0 0 1 1-1.91 4.51 4.51 0 0 1 1.54-1.25 4.62 4.62 0 0 1 4 0 4.45 4.45 0 0 1 1.53 1.24 5.93 5.93 0 0 1 1 1.9 8.56 8.56 0 0 1 0 4.85zm-1.23-4.39a5 5 0 0 0-.76-1.54 3.41 3.41 0 0 0-1.14-1 3 3 0 0 0-1.42-.34 2.92 2.92 0 0 0-1.39.34 3.33 3.33 0 0 0-1.11 1 4.82 4.82 0 0 0-.73 1.48 7 7 0 0 0-.27 2 6.75 6.75 0 0 0 .28 2 5.06 5.06 0 0 0 .75 1.54 3.31 3.31 0 0 0 1.13 1 3 3 0 0 0 1.42.34 3 3 0 0 0 1.4-.34 3.3 3.3 0 0 0 1.12-1 4.83 4.83 0 0 0 .73-1.54 7 7 0 0 0 .27-2 6.76 6.76 0 0 0-.28-1.94zM40.6 78.88v-9.17l-.13.41a6.1 6.1 0 0 1-.18.5l-.2.53c-.07.18-.13.34-.2.5l-3.12 7.53-3.06-7.53q-.1-.22-.2-.49l-.19-.53q-.09-.26-.17-.5l-.15-.42v9.16h-1.23V67.19h1.45l2.76 7 .23.58.24.63.22.59c.07.18.12.34.15.46q.05-.18.15-.47l.22-.6.24-.63.23-.57 2.79-7h1.42v11.7H40.6zM45 78.88V67.19h1.3v11.69zM55.92 78.53a4.5 4.5 0 0 1-2.24.53 4.13 4.13 0 0 1-1.94-.46 4.51 4.51 0 0 1-1.49-1.26 5.88 5.88 0 0 1-1-1.9 8.2 8.2 0 0 1-.25-2.39 8 8 0 0 1 .35-2.41 6 6 0 0 1 1-1.91 4.57 4.57 0 0 1 1.51-1.26 4.14 4.14 0 0 1 1.88-.47 4.34 4.34 0 0 1 3.72 1.87l-1 .78a4 4 0 0 0-1.17-1.12 3.05 3.05 0 0 0-1.55-.35 2.77 2.77 0 0 0-1.39.36 3.36 3.36 0 0 0-1.09 1 5.06 5.06 0 0 0-.71 1.52 6.94 6.94 0 0 0-.26 2 7 7 0 0 0 .26 2 4.91 4.91 0 0 0 .73 1.54 3.48 3.48 0 0 0 1.1 1 2.73 2.73 0 0 0 1.37.36 3.18 3.18 0 0 0 1.64-.4 4.41 4.41 0 0 0 1.25-1.13l.9.78a4.9 4.9 0 0 1-1.62 1.32zM71.4 78.88v-5.51h-5.81v5.51h-1.3V67.19h1.3v5h5.81v-5h1.3v11.69zM84.62 75.45a5.81 5.81 0 0 1-1 1.91 4.59 4.59 0 0 1-1.54 1.25 4.62 4.62 0 0 1-4 0 4.44 4.44 0 0 1-1.53-1.24 5.8 5.8 0 0 1-1-1.9 8.13 8.13 0 0 1-.34-2.42 8 8 0 0 1 .35-2.43 5.9 5.9 0 0 1 1-1.91 4.51 4.51 0 0 1 1.54-1.25 4.62 4.62 0 0 1 4 0 4.45 4.45 0 0 1 1.53 1.24 5.93 5.93 0 0 1 1 1.9A7.94 7.94 0 0 1 85 73a8.06 8.06 0 0 1-.38 2.45zm-1.23-4.39a5 5 0 0 0-.76-1.54 3.41 3.41 0 0 0-1.14-1 3 3 0 0 0-1.42-.34 2.93 2.93 0 0 0-1.39.34 3.34 3.34 0 0 0-1.11 1 4.82 4.82 0 0 0-.73 1.48 6.93 6.93 0 0 0-.27 2 6.75 6.75 0 0 0 .28 2 5.07 5.07 0 0 0 .75 1.54 3.31 3.31 0 0 0 1.13 1 3 3 0 0 0 1.42.34 3 3 0 0 0 1.4-.34 3.3 3.3 0 0 0 1.12-1A4.82 4.82 0 0 0 83.4 75a7 7 0 0 0 .27-2 6.76 6.76 0 0 0-.28-1.94zM94.26 77.09a2.84 2.84 0 0 1-.76 1 3.7 3.7 0 0 1-1.22.68 5 5 0 0 1-1.64.25 5.29 5.29 0 0 1-2.21-.46 5.75 5.75 0 0 1-1.71-1.16l.87-1a5.92 5.92 0 0 0 1.44 1 3.67 3.67 0 0 0 1.67.38 2.9 2.9 0 0 0 1.85-.53 1.77 1.77 0 0 0 .68-1.47 2 2 0 0 0-.13-.73 1.64 1.64 0 0 0-.46-.62 4.34 4.34 0 0 0-.86-.56 11 11 0 0 0-1.34-.56 11.57 11.57 0 0 1-1.59-.68 4.32 4.32 0 0 1-1-.73 2.38 2.38 0 0 1-.57-.88 3.28 3.28 0 0 1-.22-1.02 2.83 2.83 0 0 1 .27-1.25 2.78 2.78 0 0 1 .74-.94 3.23 3.23 0 0 1 1.15-.59 5.25 5.25 0 0 1 1.49-.2 5.32 5.32 0 0 1 2 .33 6.28 6.28 0 0 1 1.56.92l-.83 1a5.14 5.14 0 0 0-1.28-.81 3.86 3.86 0 0 0-1.53-.28 3.36 3.36 0 0 0-1 .14 2.09 2.09 0 0 0-.71.38 1.39 1.39 0 0 0-.4.54 1.73 1.73 0 0 0-.13.66 2 2 0 0 0 .1.66 1.42 1.42 0 0 0 .4.57 3.6 3.6 0 0 0 .84.54 14 14 0 0 0 1.43.58 12.25 12.25 0 0 1 1.62.7 4.05 4.05 0 0 1 1 .77 2.48 2.48 0 0 1 .56.92 3.64 3.64 0 0 1 .17 1.15 3.23 3.23 0 0 1-.25 1.3zM100.89 68.38v10.5h-1.3v-10.5h-3.44v-1.19h8.18v1.19z"/></svg>