<svg id="SUSE" xmlns="http://www.w3.org/2000/svg" viewBox="0 0 150 120"><defs><style>.cls-1{fill:#4cb85d}.cls-2{fill:none}</style></defs><title>suse</title><g id="Layer_2" data-name="Layer 2"><g id="Layer_1-2" data-name="Layer 1-2"><path class="cls-1" d="M134.11 49.25a6.36 6.36 0 1 0 1.15-12.67h-.86a6.15 6.15 0 0 0-6.33 6 6.06 6.06 0 0 0 6.04 6.67zm1.44-9.25c1.44 0 2.88.86 2.88 1.73s-1.15 1.73-2.88 1.73-2.88-.86-2.88-1.73 1.15-1.73 2.88-1.73z"/><path class="cls-1" d="M149.08 51.55c.29-.29 1.15-.58.86-1.44-.86-2.88-3.46-12.09-5.76-14.68a7.76 7.76 0 0 0-2.3-2c-8.93-4.89-29.66-8.06-30.81-8.06h-.29v4.89a122.76 122.76 0 0 0-32.25-6c-12.38-.58-29.08-1.15-53 13.53L25 38A53.8 53.8 0 0 0 2 63.64a28.52 28.52 0 0 0-1.15 17 23.77 23.77 0 0 0 4 8.64 26 26 0 0 0 18.41 10.64c10.65.86 18.43-3.74 21.31-12.67a17.1 17.1 0 0 0-7.49-19.58 15.4 15.4 0 0 0-16.41-.58 11 11 0 0 0-5.18 9.21 10 10 0 0 0 9.79 10.08 16.53 16.53 0 0 0 3.72-.45 7.32 7.32 0 0 0 1.74-.69 3.42 3.42 0 0 0-2.53-6.15l-.64.1a10 10 0 0 1-2.3.29 3.35 3.35 0 0 1-2.88-3.17 4.44 4.44 0 0 1 .5-1.85c1.26-2 3.49-2.44 5.55-2.18a8.87 8.87 0 0 1 7.77 5.47 9.84 9.84 0 0 1-1.15 10.08c-2.3 2.88-6 4-11.52 3.46a16.41 16.41 0 0 1-12.38-8.35 15 15 0 0 1-.29-14.4c5.47-10.08 15.55-10.08 21-8.93 7.8 1.44 19.89 8.39 24.21 24.76H67c-1.44-4.32-2-16.12 10.08-16.12 13.53 0 15.26 9.5 19 16.12h11.52c-2.88-4.32-5.18-9.21-4.61-13.24.86-6 5.76-5.47 12.38-4.61a56.09 56.09 0 0 0 7.2.58 43.33 43.33 0 0 0 18.14-3.46 43.34 43.34 0 0 0 6.33-3.17 4.75 4.75 0 0 0 1.15-2 6.78 6.78 0 0 0 .58-2.3c.29-1.15-.86-.58-.86-.58a29.68 29.68 0 0 1-12.09 3.74c-6 0-18.14-6-19.29-6.62L114 46.37q13 8.64 21.59 9.5a21.16 21.16 0 0 0 13.49-4.32zm-23.9-8.93a8.93 8.93 0 1 1 8.64 9.21c-4.9.01-8.64-4.02-8.64-9.2z"/></g></g><path class="cls-2" d="M0-.12h150v10H0zM0 110h150v10H0z"/></svg>